<?xml version="1.0" encoding="UTF-8" standalone="no"?>
<svg
   viewBox="0 0 386 386"
   version="1.1"
   id="svg263"
   sodipodi:docname="social-media-engajement.svg"
   inkscape:version="1.2.2 (b0a8486541, 2022-12-01)"
   xmlns:inkscape="http://www.inkscape.org/namespaces/inkscape"
   xmlns:sodipodi="http://sodipodi.sourceforge.net/DTD/sodipodi-0.dtd"
   xmlns="http://www.w3.org/2000/svg"
   xmlns:svg="http://www.w3.org/2000/svg">
  <sodipodi:namedview
     id="namedview265"
     pagecolor="#505050"
     bordercolor="#ffffff"
     borderopacity="1"
     inkscape:showpageshadow="0"
     inkscape:pageopacity="0"
     inkscape:pagecheckerboard="1"
     inkscape:deskcolor="#505050"
     showgrid="false"
     inkscape:zoom="2.4455959"
     inkscape:cx="324.8697"
     inkscape:cy="197.90678"
     inkscape:window-width="2560"
     inkscape:window-height="1011"
     inkscape:window-x="0"
     inkscape:window-y="0"
     inkscape:window-maximized="1"
     inkscape:current-layer="svg263" />
  <defs
     id="defs4">
    <style
       id="style2">.cls-1{isolation:isolate;}.cls-2{fill:#f2f2f2;}.cls-3{fill:#b9e2e0;}.cls-4{fill:#1a5e63;}.cls-5{fill:#ff9b71;}.cls-6,.cls-7{fill:#fff;}.cls-7{font-size:13.13px;font-family:Poppins-SemiBold, Poppins;font-weight:600;}.cls-8{fill:#0f4344;}.cls-9{fill:#f7d2ba;}.cls-10{fill:#dce8ef;}.cls-10,.cls-12,.cls-18,.cls-21{mix-blend-mode:multiply;}.cls-11{fill:#99ceca;}.cls-12{fill:#c3d3dd;opacity:0.5;}.cls-13{fill:#f9fbfc;}.cls-14,.cls-17{fill:none;}.cls-14{stroke:#1a5e63;stroke-miterlimit:10;stroke-width:0.56px;}.cls-15{fill:#e8eaea;}.cls-16{fill:#c4e8e5;}.cls-18{fill:#e0e1e2;}.cls-19{fill:#faf8f8;}.cls-20{fill:#114b4c;}.cls-21{fill:#d3dee5;opacity:0.2;}</style>
  </defs>
  <g
     class="cls-1"
     id="g261">
    <g
       id="Layer_1"
       data-name="Layer 1">
      <rect
         class="cls-2"
         x="263.99"
         y="105.93"
         width="7.13"
         height="6.82"
         rx="0.72"
         id="rect6" />
      <rect
         class="cls-2"
         x="274.15"
         y="100.97"
         width="7.13"
         height="11.78"
         rx="0.72"
         id="rect8" />
      <rect
         class="cls-2"
         x="284.3"
         y="94.56"
         width="7.13"
         height="18.19"
         rx="0.72"
         id="rect10" />
      <path
         class="cls-2"
         d="M264.44,101.19a.59.59,0,0,1-.09-1.18c.15,0,15.57-2.59,23.8-14a.58.58,0,0,1,.83-.13.6.6,0,0,1,.13.83c-8.52,11.77-24.42,14.4-24.58,14.43Z"
         id="path12" />
      <polygon
         class="cls-2"
         points="290.88 83.57 286.69 85.21 290.2 88.02 290.88 83.57"
         id="polygon14" />
      <path
         class="cls-2"
         d="M338.46,178c-3.29,5.61-6.64,11.2-8.75,17.32-4.42,12.79-2.3,26.23-.58,39.3,1.85,14.06-.44,28.32-4.65,41.77C323.4,279.87,314,310,310.15,310H56.85c-.89-.83-.92-1.84.14-3.08,15.15-17.63-12.38-48-16.66-65.41-11.66-47.52,8-99,52.84-121,29.56-14.52,62.53-11.15,93.35-2.75,25,6.83,51.55,14,78,12,12.91-.93,24.31-4.43,36-9.67,10.22-4.57,22.66-9.77,33.09-2.82,12.17,8.11,16.34,24,14.35,37.83C346.81,163.55,342.69,170.8,338.46,178Z"
         id="path16" />
      <path
         class="cls-3"
         d="M101,138v97.75a7.26,7.26,0,0,0,7.26,7.27h145.1a7.26,7.26,0,0,0,7.26-7.27V138a7.26,7.26,0,0,0-7.26-7.26H108.29A7.26,7.26,0,0,0,101,138Z"
         id="path18" />
      <path
         class="cls-4"
         d="M108.29,130.73H253.38a7.26,7.26,0,0,1,7.26,7.26v7.31a0,0,0,0,1,0,0H101a0,0,0,0,1,0,0V138A7.26,7.26,0,0,1,108.29,130.73Z"
         id="path20" />
      <path
         class="cls-3"
         d="M229.35,138a2.19,2.19,0,1,1-2.19-2.19A2.18,2.18,0,0,1,229.35,138Z"
         id="path22" />
      <path
         class="cls-5"
         d="M239.24,138a2.19,2.19,0,1,1-2.18-2.19A2.18,2.18,0,0,1,239.24,138Z"
         id="path24" />
      <path
         class="cls-6"
         d="M249.14,138a2.19,2.19,0,1,1-2.19-2.19A2.18,2.18,0,0,1,249.14,138Z"
         id="path26" />
      <rect
         class="cls-5"
         x="139.77"
         y="157.12"
         width="82.14"
         height="59.23"
         rx="4.28"
         id="rect28" />
      <polyline
         class="cls-5"
         points="170.25 214.97 181.13 225.84 191.42 215.54"
         id="polyline30" />
      <path
         class="cls-6"
         d="M168.9,196.53l-10-8.91a5.35,5.35,0,0,1-1.72-4.91c1-5.93,7.28-7.51,10.9-4.28l1.15,1,2-1.66a5.3,5.3,0,0,1,4.94-1c5.87,1.87,6.53,8.38,2.74,11.5Z"
         id="path32" />
      <text
         class="cls-7"
         transform="translate(187.42 191.64)"
         id="text34">5K</text>
      <path
         class="cls-3"
         d="M204.88,84.56c-8.43,0-15.25,5.39-15.25,12s6.82,12,15.25,12a18.44,18.44,0,0,0,7-1.34l5,2.57v-5.77a10.54,10.54,0,0,0,3.32-7.48C220.13,90,213.3,84.56,204.88,84.56ZM201,98.84a2.26,2.26,0,1,1,2.24-2.25A2.26,2.26,0,0,1,201,98.84Zm7.77,0A2.26,2.26,0,1,1,211,96.59,2.26,2.26,0,0,1,208.77,98.84ZM192.64,87.05a2.15,2.15,0,0,1-.45,0,2.25,2.25,0,1,1,2.26-2.24,2.22,2.22,0,0,1-.26,1,19.08,19.08,0,0,1,9.16-3c-1.19-5.71-7.47-10.06-15-10.06-8.42,0-15.24,5.38-15.24,12a10.48,10.48,0,0,0,3.32,7.48V98.1l5-2.57a18.19,18.19,0,0,0,6.54,1.33,2.44,2.44,0,0,1,0-.27A12.51,12.51,0,0,1,192.64,87.05Zm-8.22,0a2.25,2.25,0,1,1,2.25-2.24A2.25,2.25,0,0,1,184.42,87.09Z"
         id="path36" />
      <polygon
         class="cls-8"
         points="238.94 252.62 240.83 240.54 336.05 240.54 334.15 252.62 238.94 252.62"
         id="polygon38" />
      <polygon
         class="cls-8"
         points="234.65 284.66 236.55 272.59 331.76 272.59 329.87 284.66 234.65 284.66"
         id="polygon40" />
      <polygon
         class="cls-8"
         points="302.81 215 314.88 215 299.94 310.21 287.86 310.21 302.81 215"
         id="polygon42" />
      <polygon
         class="cls-8"
         points="270.76 215 282.84 215 267.89 310.21 255.81 310.21 270.76 215"
         id="polygon44" />
      <polygon
         class="cls-4"
         points="233.82 252.62 235.72 240.54 330.93 240.54 329.03 252.62 233.82 252.62"
         id="polygon46" />
      <polygon
         class="cls-4"
         points="229.53 284.66 231.43 272.59 326.64 272.59 324.75 284.66 229.53 284.66"
         id="polygon48" />
      <polygon
         class="cls-4"
         points="297.69 215 309.77 215 294.82 310.21 282.75 310.21 297.69 215"
         id="polygon50" />
      <polygon
         class="cls-4"
         points="265.64 215 277.72 215 262.77 310.21 250.7 310.21 265.64 215"
         id="polygon52" />
      <path
         class="cls-9"
         d="M298,214.15c-8.41,1.38-15.48,1-15.79-.9s6.26-4.53,14.66-5.92,15.48-1,15.79.91S306.37,212.77,298,214.15Z"
         id="path54" />
      <path
         class="cls-9"
         d="M283.69,212.76c-5.93-2.8-8.1,23.15-6.78,28.79s4.79-4,6.49-13.15S286,213.86,283.69,212.76Z"
         id="path56" />
      <polygon
         class="cls-9"
         points="276.58 241.97 276.42 239.78 280.2 239.94 279.46 241.86 276.58 241.97"
         id="polygon58" />
      <path
         class="cls-5"
         d="M276.58,242a10.71,10.71,0,0,1-2.62,2.67c-2,1.52-2.48,1.2-2.52,1.76s8.18,0,8.18,0l-.16-4.59A23.17,23.17,0,0,0,276.58,242Z"
         id="path60" />
      <path
         class="cls-9"
         d="M290.48,211.35c-8.23,2.61-15.37,3.25-16,1.43s5.63-5.4,13.87-8,15.37-3.25,16-1.43S298.72,208.74,290.48,211.35Z"
         id="path62" />
      <path
         class="cls-9"
         d="M276.57,211.82c-6.94,2,10.79,23.43,16,27.13s.38-5.19-4.85-14S279.29,211,276.57,211.82Z"
         id="path64" />
      <polyline
         class="cls-9"
         points="295.07 237.02 293.17 234.37 290.23 237.09 292.98 239.09"
         id="polyline66" />
      <path
         class="cls-5"
         d="M292.86,239.21a13.59,13.59,0,0,1-.29,4.19c-.52,2.69-1.18,2.8-.81,3.29s6.8-6,6.8-6l-3.49-3.7A25.36,25.36,0,0,0,292.86,239.21Z"
         id="path68" />
      <path
         class="cls-5"
         d="M277.75,221.42c.61,1,1.27,2,2,3a163,163,0,0,0,10.81,13.53l3.74-3.38s-9.86-18.53-9.48-19.27S307,210.88,308,203.64s-11.1-1.77-11.1-1.77-22.12,4.84-22.64,10.85C274,214.74,275.56,218,277.75,221.42Z"
         id="path70" />
      <path
         class="cls-10"
         d="M277.75,221.42c.61,1,1.27,2,2,3l5.07-9.12,4-7.17c-.64.2-8.17.35-9.79,5.24A34.8,34.8,0,0,0,277.75,221.42Z"
         id="path72" />
      <path
         class="cls-5"
         d="M275.64,240.26h4.8s.28-1.06.74-2.72c1.67-6,5.57-20,6.06-20.55.63-.74,18.47-.37,23.83-2.12s3.18-11.6,3.18-11.6l-6.78.28h0l-4,.15s-19.71,3.5-23.08,9.05S275.7,240.26,275.64,240.26Z"
         id="path74" />
      <path
         class="cls-10"
         d="M281.18,237.54c1.67-6,5.57-20,6.06-20.55.63-.74,18.47-.37,23.83-2.12s3.18-11.6,3.18-11.6l-6.78.28c1.57,1.44,4,4.71,1.86,7.71-2.59,3.68-21.46,0-23.81,5C283.79,219.89,282,231.63,281.18,237.54Z"
         id="path76" />
      <path
         class="cls-9"
         d="M302.93,175.72c-.95.09-2.35-.4-2.65.52-1.36,4.12-6,16.06-2.89,17,2.38.75,4.71-8.89,5.9-13.77C304,176.41,305.24,175.51,302.93,175.72Z"
         id="path78" />
      <path
         class="cls-9"
         d="M299.12,190.71a2.43,2.43,0,0,0-2.36-.31c-3.7,1.35-16.84,6.24-16.94,7.94-.12,2,19.26-4.24,19.54-5.26C299.56,192.32,300,191.44,299.12,190.71Z"
         id="path80" />
      <path
         class="cls-9"
         d="M282.22,197.46c-.46-1.28-2.57-.25-3.28.13-1.16.62-2,2.22-1.8,2.68s2.78-1.1,2.92-1-1,.94-.75,1.35,2-.55,2.48-1.2A1.72,1.72,0,0,0,282.22,197.46Z"
         id="path82" />
      <path
         class="cls-3"
         d="M302.36,187.2s2.1-11-1.43-11.47c-3.82-.53-4.41,10.86-4.41,10.86Z"
         id="path84" />
      <path
         class="cls-11"
         d="M296.85,201.87a2,2,0,0,0,.25.14,8.81,8.81,0,0,0,1.55.71c5.74,2.05,15.6.55,15.6.55-.13-1.18-.2-3.15-.27-5.53s-.12-5.13-.23-7.92a81.05,81.05,0,0,0-1.14-12.28c-.24-1.15-.43-1.87-2.39-2.66-2.26-.9-7.34-.7-9.87.76-1.46.85-2.76,4.05-2.62,7.14s1.55,3.83,1.64,8.61a25.61,25.61,0,0,1-1.85,8.81c-.21.59-.4,1-.53,1.33Z"
         id="path86" />
      <path
         class="cls-12"
         d="M307.85,178.17a21.78,21.78,0,0,0-.18,7.16c.56,3.82,1.28,8.83,1.19,9s-10.58,5.54-10.58,5.54l10.79-1.37,3.35-6.51Z"
         id="path88" />
      <path
         class="cls-9"
         d="M296.78,200.54l.21,1,.11.48-.49,1s1.21-.16,2-.33c3.64-.77,13.6-3,15.16-4.77l.17-.21c-.06-2.36.06-5.36-.05-8.15l-3.25-3.34-2.17,1,1,7.44-12,5.48Z"
         id="path90" />
      <path
         class="cls-9"
         d="M308.14,170v4.82a3.07,3.07,0,0,1-2.76,1.73,2.43,2.43,0,0,1-2.53-1.82V172s-2.57,1-3.65.14-1.64-1.73-1.73-5.1-.05-5.71,2.15-6.5,9.22-2.48,10.62,1.26S308.14,170,308.14,170Z"
         id="path92" />
      <polygon
         class="cls-9"
         points="302.85 172.01 305.5 171.06 302.85 173.54 302.85 172.01"
         id="polygon94" />
      <path
         class="cls-3"
         d="M292.15,203.05l-4-9.92-14.46.7h-.15L279,206.5l12.84.52,1.95.09Zm-9.84-4.11c.46-.2,1.08.17,1.38.82s.17,1.36-.29,1.58-1.08-.16-1.38-.83A1.17,1.17,0,0,1,282.31,198.94Z"
         id="path96" />
      <path
         class="cls-13"
         d="M282.32,198.94a1.17,1.17,0,0,0-.3,1.57c.3.67.91,1,1.37.83a1.17,1.17,0,0,0,.3-1.57C283.39,199.11,282.78,198.74,282.32,198.94Z"
         id="path98" />
      <polygon
         class="cls-4"
         points="292.15 203.04 293.77 207.1 301.48 202.91 292.15 203.04"
         id="polygon100" />
      <path
         class="cls-11"
         d="M293.77,207.1,279,206.5l.09.69,14.79.56s-.11-.66-.1-.65l.1.65,7.7-4.19-.09-.66"
         id="path102" />
      <path
         class="cls-9"
         d="M309.67,176a2.47,2.47,0,0,0-1.3,2.33c.14,4.34.84,19.28,4.07,19.12,2.5-.12,1.37-10,.81-15C312.9,179.35,311.77,175,309.67,176Z"
         id="path104" />
      <path
         class="cls-9"
         d="M313.28,195.1a2.29,2.29,0,0,0-2.22-.32c-3.52,1.22-16,5.68-16.13,7.29-.14,1.86,18.27-3.76,18.55-4.72C313.68,196.63,314.12,195.8,313.28,195.1Z"
         id="path106" />
      <path
         class="cls-9"
         d="M314,193.36s.15,3.17-.4,4.06-5.5,2.1-5.5,2.1,4.34-5,4.35-5S314,193.36,314,193.36Z"
         id="path108" />
      <path
         class="cls-9"
         d="M297.21,201.26c-.41-1.21-2.43-.26-3.1.09-1.1.57-2,2.07-1.74,2.51s2.65-1,2.78-1-1,.88-.73,1.27,1.86-.5,2.36-1.11A1.63,1.63,0,0,0,297.21,201.26Z"
         id="path110" />
      <path
         class="cls-3"
         d="M314.19,186.69s-.3-11.74-3.86-11.52c-4.66.3-1.82,12.11-1.82,12.11Z"
         id="path112" />
      <path
         class="cls-4"
         d="M308.1,170.59s-3.92-.78-3.17-3c.31-.9,1.52-3.16-.17-3.63s-1.72,4.5-1.72,4.5-.87-4.13-1-4.38-1.42-2.48-4.4-.57c-.43.27-.2-6.07,6.22-6.19,4.71-.09,7.64,2.05,7.35,5.8S310.21,168.66,308.1,170.59Z"
         id="path114" />
      <path
         class="cls-4"
         d="M310.5,161.42s5.39-2.56,7.44.53-2.05,11.85,3.4,12.77c0,0-5.6,3.19-8.37-.68s-1.16-7.68-2.77-7.56"
         id="path116" />
      <path
         class="cls-5"
         d="M311.07,161.19a18,18,0,0,1-.41,5.45s-.15.48.32.46,1.23-4.85.77-6.1C311.65,160.74,311.07,161.19,311.07,161.19Z"
         id="path118" />
      <rect
         class="cls-11"
         x="51.91"
         y="158.3"
         width="65.52"
         height="46.5"
         rx="1.74"
         id="rect120" />
      <rect
         class="cls-2"
         x="57.07"
         y="187.4"
         width="4.68"
         height="5.94"
         id="rect122" />
      <rect
         class="cls-4"
         x="66.92"
         y="181.86"
         width="4.68"
         height="11.49"
         id="rect124" />
      <rect
         class="cls-2"
         x="76.78"
         y="189.68"
         width="4.68"
         height="3.66"
         id="rect126" />
      <rect
         class="cls-4"
         x="86.64"
         y="182.35"
         width="4.68"
         height="10.99"
         id="rect128" />
      <rect
         class="cls-2"
         x="96.49"
         y="176.31"
         width="4.68"
         height="17.03"
         id="rect130" />
      <rect
         class="cls-4"
         x="106.35"
         y="171.96"
         width="4.68"
         height="21.39"
         id="rect132" />
      <polyline
         class="cls-14"
         points="57.99 180.75 72.33 172.21 78.25 181.07 109.45 163.78"
         id="polyline134" />
      <path
         class="cls-2"
         d="M59.27,181a1.68,1.68,0,1,1-1.68-1.67A1.68,1.68,0,0,1,59.27,181Z"
         id="path136" />
      <path
         class="cls-2"
         d="M73.87,172.42a1.68,1.68,0,1,1-1.68-1.67A1.68,1.68,0,0,1,73.87,172.42Z"
         id="path138" />
      <path
         class="cls-2"
         d="M79.92,180.89a1.68,1.68,0,1,1-1.68-1.68A1.68,1.68,0,0,1,79.92,180.89Z"
         id="path140" />
      <path
         class="cls-2"
         d="M111.09,163.81a1.68,1.68,0,1,1-1.68-1.68A1.68,1.68,0,0,1,111.09,163.81Z"
         id="path142" />
      <path
         class="cls-3"
         d="M339.18,223.37a1.8,1.8,0,0,1-1.8-1.8V204.63a1.79,1.79,0,0,1,1.8-1.8h16.93a1.8,1.8,0,0,1,1.81,1.8v16.94a1.81,1.81,0,0,1-1.81,1.8Z"
         id="path144" />
      <path
         class="cls-3"
         d="M356.11,203.14a1.5,1.5,0,0,1,1.5,1.49v16.94a1.5,1.5,0,0,1-1.5,1.49H339.18a1.49,1.49,0,0,1-1.49-1.49V204.63a1.49,1.49,0,0,1,1.49-1.49h16.93m0-.63H339.18a2.12,2.12,0,0,0-2.12,2.12v16.94a2.11,2.11,0,0,0,2.12,2.11h16.93a2.11,2.11,0,0,0,2.12-2.11V204.63a2.12,2.12,0,0,0-2.12-2.12Z"
         id="path146" />
      <circle
         class="cls-6"
         cx="347.65"
         cy="211.43"
         r="4.36"
         id="circle148" />
      <path
         class="cls-6"
         d="M354.19,218.55v3.1H341.1v-3.1a2.22,2.22,0,0,1,2.23-2.22H352A2.22,2.22,0,0,1,354.19,218.55Z"
         id="path150" />
      <path
         class="cls-2"
         d="M56.69,116.48A2.48,2.48,0,0,1,54.22,114V90.69a2.48,2.48,0,0,1,2.47-2.48H80a2.49,2.49,0,0,1,2.49,2.48V114A2.49,2.49,0,0,1,80,116.48Z"
         id="path152" />
      <path
         class="cls-6"
         d="M80,88.64a2,2,0,0,1,2,2V114a2,2,0,0,1-2,2H56.69a2,2,0,0,1-2-2V90.69a2.05,2.05,0,0,1,2-2H80m0-.86H56.69a2.91,2.91,0,0,0-2.9,2.91V114a2.9,2.9,0,0,0,2.9,2.9H80a2.91,2.91,0,0,0,2.92-2.9V90.69A2.92,2.92,0,0,0,80,87.78Z"
         id="path154" />
      <circle
         class="cls-6"
         cx="68.35"
         cy="100.05"
         r="6"
         id="circle156" />
      <path
         class="cls-6"
         d="M77.35,109.85v4.26h-18v-4.26a3.06,3.06,0,0,1,3.07-3.06H74.29A3,3,0,0,1,77.35,109.85Z"
         id="path158" />
      <rect
         class="cls-15"
         x="33.99"
         y="310.03"
         width="299.46"
         height="3.15"
         rx="1.58"
         id="rect160" />
      <path
         class="cls-9"
         d="M58.42,261.12a3.09,3.09,0,0,0-2.53,3.62,20.85,20.85,0,0,0,1.75,5.37c2.57,5.44,4.13,12.45,6.48,12.76s3.32-3.79,1.83-9.49c-1.35-5.15-1.86-11.7-3.54-12.26A11.24,11.24,0,0,0,58.42,261.12Z"
         id="path162" />
      <path
         class="cls-9"
         d="M65.26,280.13c-4.7-2.86-2.7,19.34-1,25.25s2.59.86,2.73-8.79S67.11,281.25,65.26,280.13Z"
         id="path164" />
      <polygon
         class="cls-9"
         points="63.42 306.09 63.1 303.23 66.9 303.35 66.83 306.19 63.42 306.09"
         id="polygon166" />
      <path
         class="cls-4"
         d="M66.87,305.6a6.84,6.84,0,0,0,2.61,2.9c2.2,1.62,2.77,1.25,2.83,1.86s-9,.25-9,.25l0-5.08A32.54,32.54,0,0,1,66.87,305.6Z"
         id="path168" />
      <path
         class="cls-5"
         d="M67.67,281c0,5.79-.28,22.83-.28,22.83H62.51s-.8-12.34-.47-21.49l-4.57-8-6.89-12,13.1.44S67.67,275.24,67.67,281Z"
         id="path170" />
      <path
         class="cls-12"
         d="M62,282.36l-4.57-8,2.21-4.2s.12,5.28,1.26,7a17.32,17.32,0,0,1,2.29,4.7c.16.83-.38,7-.1,12.21s-.07,8,4.26,9.78H62.51S61.71,291.51,62,282.36Z"
         id="path172" />
      <path
         class="cls-9"
         d="M55.05,280.75c-4.14-3.63-6,18.58-5.39,24.69s2.41,1.3,4.21-8.19S56.68,282.17,55.05,280.75Z"
         id="path174" />
      <polygon
         class="cls-9"
         points="48.53 305.91 49 303.26 52.48 304.04 52 306.71 48.53 305.91"
         id="polygon176" />
      <path
         class="cls-9"
         d="M53.34,261.81a3.07,3.07,0,0,0-3.32,2.9,20.36,20.36,0,0,0,.42,5.64c1.18,5.89,1,13.08,3.24,13.94s3.92-3,3.84-8.89c-.08-5.32,1.19-11.7-.31-12.64A11.32,11.32,0,0,0,53.34,261.81Z"
         id="path178" />
      <path
         class="cls-5"
         d="M61,262.67s-3.18,17.13-3.85,22-4.44,19.77-4.44,19.77l-4.14-.83s1-14,2.86-20.66c0,0-4.16-15.5-1-21.32S61,262.67,61,262.67Z"
         id="path180" />
      <path
         class="cls-9"
         d="M87.22,234.06a.63.63,0,0,1-.11.44h0a6.87,6.87,0,0,1-1.27,1.41h0c-.22.21-.46.42-.71.64-.53.45-1.13.94-1.77,1.44l-.6.46c-4.24,3.24-10,7-10.57,6.75s-1.16-.28-1.23-1h0a3.18,3.18,0,0,1,.14-1.12,1.41,1.41,0,0,1,.57-.8c1.27-.84,5.4-3.54,9.09-5.66h0c1.32-.76,2.58-1.44,3.63-1.93,1.36-.63,2.38-.95,2.72-.73A.2.2,0,0,1,87.22,234.06Z"
         id="path182" />
      <path
         class="cls-9"
         d="M88.38,232.93l-.47,1a4.16,4.16,0,0,1-1,1.32l-1.08.7h0l-.23.16-.24-.26-.13-.14-.65-.7-.18-.18h0v-.13l.07-.87a1.54,1.54,0,0,1,.24-.72l.83-.77a.68.68,0,0,1,0,.56,1.53,1.53,0,0,0,0,.62l.4-.49L87,231.86a.61.61,0,0,1,.88,0,.24.24,0,0,1,.09.11l.41.61A.38.38,0,0,1,88.38,232.93Z"
         id="path184" />
      <path
         class="cls-9"
         d="M59.14,236.16c-.18.79-1.14.57-.52,1.07,2.79,2.27,12.26,9.72,14,7.75,2.07-2.32-6.71-8.42-9.47-9.86C60.88,233.92,59.57,234.26,59.14,236.16Z"
         id="path186" />
      <path
         class="cls-9"
         d="M82.76,238.46s-5,3.86-8.12,5.82h0a9.8,9.8,0,0,1-2.06,1.06l-.12,0c-1.74.25-4.93-1.51-4.93-1.51l2.35-4.21h0s2.31,1.21,2.41,1.2,6.91-3.45,8.46-4.24h0l.28-.15,1.17,1.39.34.4.18.22Z"
         id="path188" />
      <path
         class="cls-16"
         d="M70.12,239.31l-2,4.13-.37.76c-1.06-.54-1.81-1-1.81-1l-1-.63c-4.55-3-6.62-4.46-7.46-5.69,0,0,.48-4.79,5.61-2.14Z"
         id="path190" />
      <path
         class="cls-12"
         d="M68.14,243.44l-.37.76c-1.06-.54-1.81-1-1.81-1l-1-.63c-.15-1.4-.46-4.71-.46-4.71s1.19,4.24,3.37,5.47Z"
         id="path192" />
      <polyline
         class="cls-17"
         points="80.17 240.71 80.09 240.47 79.82 239.6 79.71 239.27"
         id="polyline194" />
      <path
         class="cls-9"
         d="M63.28,231.43c-.62,1.57-2.7,1.34-2.7,1.34l-.33,1L59.88,235,58,238.11l-2.94-2.59.46-2,.79-2.29s-.15-.29-.35-.76c-.11-.24-.23-.52-.35-.83-.54-1.39-1.14-3.37-.81-4.64.54-2.12,3-5.3,7.5-3.32S63.9,229.85,63.28,231.43Z"
         id="path196" />
      <path
         class="cls-11"
         d="M65.19,267c-.35.35-15.14.83-16.25-.46-.34-.39.46-7.28.92-13.18.06-.73.11-1.46.16-2.15.06-1,.1-2,.12-2.84,0-.15,0-.31,0-.47a30.72,30.72,0,0,0-.32-3.41c-.06-.38-.11-.77-.16-1.16-.11-.74-.24-1.48-.34-2.23a1,1,0,0,1,0-.17c-.11-.74-.24-1.49-.28-2.23a6.87,6.87,0,0,1,0-1.2,3.6,3.6,0,0,1,.35-1.23,3.74,3.74,0,0,1,1.13-1.39,5.45,5.45,0,0,1,1.07-.56,12,12,0,0,1,2.42-.62c.5-.08,1-.14,1.5-.17h0s1.29,1.83,3,1.82a1.58,1.58,0,0,0,1.41-.79,3.48,3.48,0,0,0,.32-.77,6.11,6.11,0,0,1,2.06.4A3.17,3.17,0,0,1,64.12,236c.58,1.32,1.07,4.53.82,10.73,0,.58-.06,1.19-.1,1.83,0,0,0,.16,0,.44,0,.67.07,2.07.13,3.81,0,.19,0,.4,0,.6,0,.9,0,1.86.08,2.86C65.26,261.23,65.39,266.85,65.19,267Z"
         id="path198" />
      <path
         class="cls-12"
         d="M64.84,248.53s0,.16,0,.44a11.93,11.93,0,0,1-6,1.26c-3.35-.51-8.59-9.32-9.84-11.49a6.87,6.87,0,0,1,0-1.2,3.6,3.6,0,0,1,.35-1.23L52.12,238l7.44,9.63,5.38-1C64.91,247.28,64.88,247.89,64.84,248.53Z"
         id="path200" />
      <path
         class="cls-12"
         d="M60.58,232.77l-.33,1h0c-.16-.15-2.16-1.62-2.16-1.62A17.61,17.61,0,0,0,60.58,232.77Z"
         id="path202" />
      <path
         class="cls-12"
         d="M57.83,227.38c-.17-.23-.71-.92-1.16-.63s.26,2.39-.65,3.71l0,0c-.11-.24-.23-.52-.35-.83,0-1.67.45-5,.45-5Z"
         id="path204" />
      <path
         class="cls-12"
         d="M64.79,225.9s-4.3-1.16-5.18-.4a4.9,4.9,0,0,0-1.16,2.42s-1.18-3.67-.66-3.77,3.84-.21,3.84-.21Z"
         id="path206" />
      <path
         class="cls-4"
         d="M64.79,225.9s-5.08-1.82-5.69-.45-.36,2.59-.77,2.64-.93-2.39-1.81-1.71.28,2.8-.5,4.08c-.29.47-2-4.3-1.3-6.45s1.93-3,5.13-3.12a8.16,8.16,0,0,1,4.19.93A3.22,3.22,0,0,1,64.79,225.9Z"
         id="path208" />
      <polyline
         class="cls-17"
         points="50.29 246.06 50.89 245.93 56.32 244.73 56.44 244.7"
         id="polyline210" />
      <path
         class="cls-4"
         d="M52.16,305.85a6.8,6.8,0,0,0,2.06,3.3c1.89,2,2.51,1.71,2.47,2.33s-8.95-1.32-8.95-1.32l.92-5A32.74,32.74,0,0,1,52.16,305.85Z"
         id="path212" />
      <path
         class="cls-5"
         d="M72.57,230.11s5.1-1.14,3.2-9c0,0,3.32-1.09,4.1,1.68a28.27,28.27,0,0,1,.93,5.35l8.12-1.71a3.31,3.31,0,0,1,3.88,2.38c1.14,4.29,2.59,11.82-.67,13.4-4.61,2.24-8.75,2.51-9.77,2.33a29.77,29.77,0,0,0-6.69.42"
         id="path214" />
      <rect
         class="cls-4"
         x="68.41"
         y="229.97"
         width="6.06"
         height="16.17"
         rx="0.78"
         transform="matrix(0.98, -0.21, 0.21, 0.98, -47.49, 19.81)"
         id="rect216" />
      <path
         class="cls-9"
         d="M76.62,242c.09.09.08.22,0,.36a1.12,1.12,0,0,1-.28.32h0a8.77,8.77,0,0,1-1.4.94h0c-.75.44-1.7.91-2.76,1.4l-1.14.52-.06,0c-.74.33-1.52.66-2.3,1a.22.22,0,0,1-.08,0c-4.26,1.75-8.66,3.24-9,3s-.91-.48-1-1a1.17,1.17,0,0,1,0-.32,3.33,3.33,0,0,1,.39-1.06,1.37,1.37,0,0,1,.73-.63c1.14-.42,4.25-1.56,7.49-2.61.88-.29,1.77-.57,2.64-.83.52-.16,1-.31,1.52-.44.91-.25,1.76-.46,2.5-.62C75.28,241.82,76.34,241.74,76.62,242Z"
         id="path218" />
      <path
         class="cls-9"
         d="M67.63,243.89l.8,2.14.2.56a.22.22,0,0,1-.08,0c-.82.35-7.49,3.13-9.39,3.12-1.18,0-4.54-4.5-4.54-4.5l4-3h0l2.19,3.47L67.15,244Z"
         id="path220" />
      <path
         class="cls-9"
         d="M77.85,240.23l0,.05.26.69a.38.38,0,0,1-.06.38l-.67.82a4.31,4.31,0,0,1-1.27,1.06l-1.22.43-.26.1-.17-.3v0l-.56-1-.13-.22h0l0-.12.27-.83a1.46,1.46,0,0,1,.4-.65l1-.57a.68.68,0,0,1-.15.55,1.52,1.52,0,0,0-.19.59l.51-.39,1.31-.86A.64.64,0,0,1,77.85,240.23Z"
         id="path222" />
      <path
         class="cls-9"
         d="M50.51,236.65c-.44.68-1.26.15-.85.83,1.85,3.08,8.22,13.31,10.55,12.05,2.73-1.48-3.45-10.2-5.55-12.49C52.9,235.14,51.56,235,50.51,236.65Z"
         id="path224" />
      <path
         class="cls-16"
         d="M58.92,242.08l-3.89,3-.6.45a62.68,62.68,0,0,1-5-7.37,2,2,0,0,1,.81-2.65,3.46,3.46,0,0,1,3.46.19,6.29,6.29,0,0,1,2,1.84C56.4,238.57,57.74,240.44,58.92,242.08Z"
         id="path226" />
      <path
         class="cls-3"
         d="M222,288.34c-8.14,7.3-5.8,14-8.86,13.92a1.56,1.56,0,0,1-.44-.06c-2.31-.62-.75-5.93-7.34-14-4.17-5.12-12.15-14.38-9.19-18.27,2.54-3.33,7.72,5.3,11.59.86,2.81-3.23-6.37-5.68-4.4-9.2,2.18-3.9,7.15,2.39,8.49-1.53s-2.23-10.09,1.45-10.59h.16c3.52-.31,4,5.17,4.2,8.78s0,4.79,1.1,4.65,4.86-4.21,6.79-1.29-5.66,8.29-5.58,13,5.91-2.38,7.08,2.1C227.72,279.22,226,284.72,222,288.34Z"
         id="path228" />
      <polygon
         class="cls-18"
         points="223.66 278.89 214.44 285.38 214.56 273.05 214.57 273.06 220.68 266.14 214.57 272 214.71 257.6 214.22 266.03 208.96 263.75 214.17 266.82 213.42 279.68 202.06 275.34 213.37 280.43 212.48 296.62 214 296.67 214.43 286.28 223.66 278.89"
         id="polygon230" />
      <path
         class="cls-19"
         d="M214.6,276.54c-2.69.26-6.76,4-6.76,4A17.17,17.17,0,0,0,214.6,276.54Zm-6.82,16.53c-1.18.06-2.78.33-3.87.33a13.72,13.72,0,0,0,4.4.52c1.13-.21,2.23-.37,2.7-.44a72.22,72.22,0,0,0,4.6,9.39c.22.4.35.3.15-.08a86.88,86.88,0,0,1-4.64-10.16,11.64,11.64,0,0,0,4.5-2.18c1.44-1.44,2.91-2.74,2.91-2.74a28.26,28.26,0,0,0-4.15,2.2c-1.25.93-2.09,1.88-3.27,2.69-.25-.68-.5-1.37-.74-2.07a19.63,19.63,0,0,0,7.39-4.94c-2.9.44-7,4.55-7.4,4.92-.21-.62-.42-1.24-.61-1.86a14.82,14.82,0,0,0,5.88-3.08c-2.14.09-5.41,2.66-5.89,3-.08-.25-.17-.5-.24-.75l-.27-.94a20.27,20.27,0,0,0,7.83-4.66c-2.9.29-7.15,4-7.85,4.6-.23-.83-.44-1.67-.64-2.51a17.37,17.37,0,0,0,7.15-3.07c-2.49-.08-6.5,2.57-7.16,3-.12-.52-.24-1-.35-1.56a17.39,17.39,0,0,0,6.46-4.24c-2.39.34-5.75,3.46-6.47,4.16-.19-.9-.35-1.79-.48-2.69-.08-.67-.18-1.34-.24-2s-.1-1.13-.13-1.69a9.27,9.27,0,0,0,3.84-1.09c1.36-.94,2.73-1.77,2.73-1.77a22.66,22.66,0,0,0-3.65,1.16c-1.11.55-1.9,1.17-2.92,1.64,0-.09,0-.18,0-.27,0-.57,0-1.14,0-1.72a14.37,14.37,0,0,0,6.08-2.36c-2.14-.14-5.73,2.12-6.08,2.35q0-.65,0-1.29a14.31,14.31,0,0,0,5.58-3.34c-2.09.21-5.17,2.94-5.58,3.31q0-.5.09-1a.86.86,0,0,0,0-.23,11.32,11.32,0,0,0,3.78-3.42c-1.59.49-3.55,3.09-3.78,3.4,0,0,0-.08,0-.07.06-.37.68-4.15-.5-6.23a11.26,11.26,0,0,0,.49,6.23s-.08.12-.1.3,0,.25,0,.37c-.05-.3-.7-4.13-2.51-5.73a11.28,11.28,0,0,0,2.51,5.74q-.06.48-.09,1c-.3-.49-2.25-3.56-4.43-4.34a11.37,11.37,0,0,0,4.42,4.39c0,.36,0,.72-.05,1.09-.59-.42-4.28-3-6.59-2.93a16.06,16.06,0,0,0,6.59,3c0,.36,0,.72,0,1.08-.69-.27-4.37-1.61-6.34-1.08a14.42,14.42,0,0,0,6.34,1.13c0,.14,0,.28,0,.42,0,.51,0,1,.07,1.53-.8-.31-4.87-1.81-7.06-1.23a16.16,16.16,0,0,0,7.06,1.3l0,.44c0,.56.11,1.12.17,1.67-.65-.19-5-1.47-7.19-.71a16.05,16.05,0,0,0,7.19.75c0,.11,0,.21,0,.32.07.56.15,1.11.25,1.67-1-.22-5.06-1.09-7.11-.22,0,0,5.2,1.15,7.13.35.15.89.33,1.78.53,2.66a20.28,20.28,0,0,0-3.48-1.07c-1.28-.2-2.31-.13-3.49-.36a9.68,9.68,0,0,0,3.89,1.38c1.34,0,2.65.08,3.09.11.15.65.31,1.3.49,1.94a19.36,19.36,0,0,0-3.23-.74c-1.17-.09-2.78,0-3.85-.15a13.49,13.49,0,0,0,4.28,1.05c1.22-.08,2.41-.1,2.81-.11.13.49.26,1,.4,1.46.06.18.12.36.17.54-.89-.2-5.26-1.11-7.4-.18,0,0,5.49,1.17,7.44.28q.35,1.14.75,2.25c-1.09-.19-5.27-.86-7.31.11,0,0,5.38.94,7.36.05.29.79.58,1.58.89,2.36A18.78,18.78,0,0,0,207.78,293.07Zm5.77-17.9c-2.31.1-6,3.09-6,3.09A14.66,14.66,0,0,0,213.55,275.17Z"
         id="path232" />
      <path
         class="cls-20"
         d="M221.25,296l-.12,1.33-1,11.63a1.24,1.24,0,0,1-1.22,1.13l-9.87.08a1.21,1.21,0,0,1-1.23-1.1l-1.11-10.46v0l-.26-2.46Z"
         id="path234" />
      <path
         class="cls-21"
         d="M221.13,296.81l-1,11.63a1.24,1.24,0,0,1-1.22,1.13l-4.7,0c4.27-1.7,5.32-5.49,4.45-8.4-.94-3.14-10.9-3.13-12-3.12h-.1l.1,0,9.44-2Z"
         id="path236" />
      <rect
         class="cls-4"
         x="205.52"
         y="295.55"
         width="16.64"
         height="2.52"
         rx="0.49"
         transform="translate(-2.59 1.88) rotate(-0.5)"
         id="rect238" />
      <circle
         class="cls-6"
         cx="317.27"
         cy="136.08"
         r="2.4"
         id="circle240" />
      <circle
         class="cls-2"
         cx="30.79"
         cy="163.18"
         r="2.4"
         id="circle242" />
      <circle
         class="cls-2"
         cx="138.39"
         cy="96.03"
         r="2.4"
         id="circle244" />
      <circle
         class="cls-6"
         cx="102.08"
         cy="270.51"
         r="2.4"
         id="circle246" />
      <circle
         class="cls-6"
         cx="148.53"
         cy="280.65"
         r="2.4"
         id="circle248" />
      <path
         class="cls-4"
         d="M137.6,226.87a.32.32,0,0,1-.18-.06.34.34,0,0,1-.1-.47l3.84-5.87a.34.34,0,0,1,.47-.1.33.33,0,0,1,.1.47l-3.84,5.87A.35.35,0,0,1,137.6,226.87Z"
         id="path250" />
      <path
         class="cls-4"
         d="M142,234.05a.34.34,0,0,1-.34-.3.34.34,0,0,1,.3-.38l7-.78a.34.34,0,0,1,.38.3.34.34,0,0,1-.3.37l-7,.79Z"
         id="path252" />
      <path
         class="cls-4"
         d="M140,230.36a.36.36,0,0,1-.29-.16.35.35,0,0,1,.12-.47l5-3.1a.34.34,0,1,1,.36.58l-5,3.1A.35.35,0,0,1,140,230.36Z"
         id="path254" />
      <rect
         class="cls-4"
         x="120.39"
         y="237.01"
         width="8.84"
         height="10"
         transform="matrix(0.8, -0.6, 0.6, 0.8, -120.02, 122.82)"
         id="rect256" />
      <path
         class="cls-4"
         d="M141.64,240.08a15,15,0,0,0-2.49-5.75q-.61-1-1.38-2c-.5-.66-1-1.29-1.51-1.86a15.27,15.27,0,0,0-4.85-4,1.51,1.51,0,0,0-1.43,0,1,1,0,0,0-.35.6,13.3,13.3,0,0,1-1.8,4.7l-2.47,3.64-7.08,5.29-1,.75a3.18,3.18,0,0,0-.65,4.45l2.18,2.92a3.2,3.2,0,0,0,4.46.64l1-.75,6.75,4.21a.71.71,0,0,0,.81,0l1.9-1.42a.72.72,0,0,0-.06-1.19l-3.84-2.41v-.06l.5-.35a.78.78,0,0,0-.07-1.3l-1.45-.85,2.54-1.89,4.21-1.34a13.45,13.45,0,0,1,5-.41,1,1,0,0,0,.68-.17A1.47,1.47,0,0,0,141.64,240.08Zm-1.69.09c-.4.3-1.09.14-1.94-.37a20.76,20.76,0,0,1-7.35-9.8c-.26-1-.21-1.67.18-2a1.28,1.28,0,0,1,1.19,0,11.74,11.74,0,0,1,3.94,3.22c.41.46.83,1,1.23,1.5s.78,1.09,1.11,1.62a11.83,11.83,0,0,1,2,4.67A1.23,1.23,0,0,1,140,240.17Z"
         id="path258" />
    </g>
  </g>
</svg>
